<svg xmlns="http://www.w3.org/2000/svg" xmlns:xlink="http://www.w3.org/1999/xlink" width="500" zoomAndPan="magnify" viewBox="0 0 375 374.999991" height="500" preserveAspectRatio="xMidYMid meet" version="1.0"><defs><clipPath id="001cd20a76"><path d="M 28.222656 3 L 361 3 L 361 365 L 28.222656 365 Z M 28.222656 3 " clip-rule="nonzero"/></clipPath></defs><path fill="#000000" d="M 63.582031 251.441406 L 106.019531 251.441406 C 109.925781 251.441406 113.09375 248.273438 113.09375 244.363281 C 113.09375 240.457031 109.925781 237.285156 106.019531 237.285156 L 63.582031 237.285156 C 59.675781 237.285156 56.507812 240.457031 56.507812 244.363281 C 56.507812 248.273438 59.675781 251.441406 63.582031 251.441406 Z M 63.582031 251.441406 " fill-opacity="1" fill-rule="nonzero"/><path fill="#000000" d="M 63.582031 223.128906 L 120.167969 223.128906 C 124.074219 223.128906 127.242188 219.957031 127.242188 216.050781 C 127.242188 212.140625 124.074219 208.972656 120.167969 208.972656 L 63.582031 208.972656 C 59.675781 208.972656 56.507812 212.140625 56.507812 216.050781 C 56.507812 219.957031 59.675781 223.128906 63.582031 223.128906 Z M 63.582031 223.128906 " fill-opacity="1" fill-rule="nonzero"/><path fill="#000000" d="M 63.582031 194.816406 L 127.242188 194.816406 C 131.148438 194.816406 134.316406 191.644531 134.316406 187.734375 C 134.316406 183.828125 131.148438 180.65625 127.242188 180.65625 L 63.582031 180.65625 C 59.675781 180.65625 56.507812 183.828125 56.507812 187.734375 C 56.507812 191.644531 59.675781 194.816406 63.582031 194.816406 Z M 63.582031 194.816406 " fill-opacity="1" fill-rule="nonzero"/><path fill="#000000" d="M 63.582031 166.5 L 98.949219 166.5 C 102.855469 166.5 106.019531 163.332031 106.019531 159.421875 C 106.019531 155.511719 102.855469 152.34375 98.949219 152.34375 L 63.582031 152.34375 C 59.675781 152.34375 56.507812 155.511719 56.507812 159.421875 C 56.507812 163.332031 59.675781 166.5 63.582031 166.5 Z M 63.582031 166.5 " fill-opacity="1" fill-rule="nonzero"/><path fill="#000000" d="M 63.582031 279.933594 L 127.242188 279.933594 C 131.148438 279.933594 134.316406 276.765625 134.316406 272.855469 C 134.316406 268.945312 131.148438 265.777344 127.242188 265.777344 L 63.582031 265.777344 C 59.675781 265.777344 56.507812 268.945312 56.507812 272.855469 C 56.507812 276.765625 59.675781 279.933594 63.582031 279.933594 Z M 63.582031 279.933594 " fill-opacity="1" fill-rule="nonzero"/><path fill="#000000" d="M 63.582031 308.246094 L 141.386719 308.246094 C 145.292969 308.246094 148.460938 305.078125 148.460938 301.167969 C 148.460938 297.261719 145.292969 294.089844 141.386719 294.089844 L 63.582031 294.089844 C 59.675781 294.089844 56.507812 297.261719 56.507812 301.167969 C 56.507812 305.078125 59.675781 308.246094 63.582031 308.246094 Z M 63.582031 308.246094 " fill-opacity="1" fill-rule="nonzero"/><path fill="#000000" d="M 212.121094 322.40625 L 63.582031 322.40625 C 59.675781 322.40625 56.507812 325.574219 56.507812 329.484375 C 56.507812 333.390625 59.675781 336.5625 63.582031 336.5625 L 212.121094 336.5625 C 216.027344 336.5625 219.195312 333.390625 219.195312 329.484375 C 219.195312 325.574219 216.027344 322.40625 212.121094 322.40625 Z M 212.121094 322.40625 " fill-opacity="1" fill-rule="nonzero"/><path fill="#000000" d="M 70.652344 102.707031 L 176.753906 102.707031 C 180.660156 102.707031 183.828125 99.539062 183.828125 95.628906 L 183.828125 46.078125 C 183.828125 42.171875 180.660156 39 176.753906 39 L 70.652344 39 C 66.75 39 63.582031 42.171875 63.582031 46.078125 L 63.582031 95.628906 C 63.582031 99.539062 66.746094 102.707031 70.652344 102.707031 Z M 77.726562 53.15625 L 169.679688 53.15625 L 169.679688 88.550781 L 77.726562 88.550781 Z M 77.726562 53.15625 " fill-opacity="1" fill-rule="nonzero"/><path fill="#000000" d="M 185.386719 189.269531 C 164.480469 210.191406 164.480469 244.234375 185.386719 265.15625 C 206.292969 286.078125 240.3125 286.078125 261.21875 265.15625 C 282.144531 244.214844 282.144531 210.214844 261.21875 189.269531 C 240.289062 168.328125 206.316406 168.328125 185.386719 189.269531 Z M 251.214844 255.144531 C 235.824219 270.546875 210.78125 270.550781 195.390625 255.144531 C 180 239.742188 180 214.683594 195.390625 199.28125 C 202.832031 191.832031 212.742188 187.734375 223.300781 187.734375 C 245.140625 187.734375 262.753906 205.347656 262.753906 227.214844 C 262.753906 237.777344 258.65625 247.699219 251.214844 255.144531 Z M 251.214844 255.144531 " fill-opacity="1" fill-rule="nonzero"/><g clip-path="url(#001cd20a76)"><path fill="#000000" d="M 354.472656 328.449219 L 311.234375 285.175781 C 308.46875 282.414062 303.992188 282.414062 301.230469 285.175781 L 296.230469 290.179688 L 286.007812 279.953125 C 301.84375 261.125 307.867188 236.789062 304.074219 213.769531 C 304.0625 87.554688 304.136719 95.308594 303.945312 94.300781 C 303.667969 92.882812 302.972656 91.59375 302.003906 90.625 C 211.476562 0.0742188 216.941406 5.226562 215.382812 4.410156 C 214.4375 3.917969 213.285156 3.609375 212.121094 3.609375 L 56.507812 3.609375 C 40.90625 3.609375 28.214844 16.308594 28.214844 31.921875 L 28.214844 336.386719 C 28.214844 351.996094 40.90625 364.699219 56.507812 364.699219 L 275.78125 364.699219 C 290.832031 364.699219 303.171875 352.878906 304.023438 338.027344 L 324.464844 358.480469 C 332.738281 366.761719 346.199219 366.761719 354.472656 358.480469 L 354.476562 358.480469 C 362.75 350.203125 362.75 336.730469 354.472656 328.449219 Z M 271.21875 275.167969 C 244.796875 301.609375 201.804688 301.609375 175.382812 275.167969 C 148.960938 248.726562 148.960938 205.703125 175.382812 179.261719 C 201.804688 152.820312 244.796875 152.820312 271.21875 179.261719 C 297.644531 205.703125 297.644531 248.726562 271.21875 275.167969 Z M 219.195312 27.777344 L 279.925781 88.550781 L 219.195312 88.550781 Z M 289.929688 336.386719 C 289.929688 344.191406 283.582031 350.542969 275.78125 350.542969 L 56.507812 350.542969 C 48.707031 350.542969 42.359375 344.191406 42.359375 336.386719 L 42.359375 31.921875 C 42.359375 24.117188 48.707031 17.765625 56.507812 17.765625 L 205.046875 17.765625 L 205.046875 95.628906 C 205.046875 99.539062 208.214844 102.707031 212.121094 102.707031 L 289.929688 102.707031 L 289.929688 179.523438 C 260.320312 138.144531 200.882812 133.722656 165.378906 169.25 C 133.441406 201.210938 133.441406 253.214844 165.378906 285.175781 C 195.472656 315.289062 243.671875 317.195312 276.003906 289.964844 L 286.226562 300.191406 L 281.222656 305.199219 C 278.460938 307.960938 278.460938 312.445312 281.222656 315.207031 L 289.929688 323.921875 Z M 344.472656 348.472656 C 341.714844 351.230469 337.226562 351.230469 334.46875 348.472656 L 296.230469 310.203125 C 297.207031 309.222656 294.460938 311.972656 306.230469 300.191406 L 344.472656 338.460938 C 347.230469 341.21875 347.230469 345.710938 344.472656 348.472656 Z M 344.472656 348.472656 " fill-opacity="1" fill-rule="nonzero"/></g></svg>